<?xml version="1.0" encoding="utf-8"?>
<!-- Generator: Adobe Illustrator 26.5.0, SVG Export Plug-In . SVG Version: 6.00 Build 0)  -->
<svg version="1.1" id="Layer_1" xmlns="http://www.w3.org/2000/svg" xmlns:xlink="http://www.w3.org/1999/xlink" x="0px" y="0px"
	 viewBox="0 0 212.31 215" style="enable-background:new 0 0 212.31 215;" xml:space="preserve">
<style type="text/css">
	.st0{fill:#F48E4A;}
	.st1{fill:#2E5584;}
</style>
<g>
	<g>
		<g>
			<g>
				<g>
					<g>
						<g>
							<g>
								<g>
									<path class="st0" d="M39.63,158.91c2.24-3.23,4.94-6,7.21-9.14c12.18-16.79,19.97-35.29,22.3-56
										c0.63-5.56,0.92-11.13,0.95-16.7c0.12-21.19,0.05-42.39,0.05-63.59c0-6.81,0.83-7.74,7.49-9.53
										c10.77-2.89,21.7-4.25,32.83-3.89c11.01,0.36,21.73,2.37,32.14,6.05c10.81,3.83,20.82,9.17,29.97,16.01
										c8.4,6.28,15.5,13.91,21.77,22.33c3.6,4.84,6.45,10.12,9.48,15.3c0.79,1.35,1.64,2.74,0.83,4.51
										c-1.26,0.19-2.14-0.58-3.11-1.18c-7.93-4.89-16.14-9.23-25.41-10.93c-19.59-3.58-37.17,0.72-51.62,14.72
										c-11.35,10.99-12.64,29.87-3.33,42.69c8.67,11.94,27.03,16,40.73,3.9c2.24-1.98,3.84-4.51,4.07-7.64
										c0.21-2.85-0.7-3.58-3.48-2.97c-1.64,0.36-3.28,0.76-4.94,1.06c-8.51,1.54-14.45-3.08-15.14-11.76
										c-0.81-10.06,4.3-18.52,14.41-21.49c20.29-5.95,43.38,0.88,51.57,24.14c4.53,12.87,5.26,26.11,1.5,39.17
										c-4.47,15.51-15.22,25.37-30.48,30.33c-9.36,3.05-18.74,1.65-28.07-0.24c-11.5-2.33-22.37-6.78-33.55-10.18
										c-6.65-2.02-13.25-4.2-20.08-5.57c-10.63-2.14-21.17-1.66-31.57,1.33c-6.79,1.95-13.46,4.28-19.75,7.57
										C44.34,158.29,42.14,158.93,39.63,158.91z"/>
									<path class="st1" d="M181.68,183.85c-6.54,9-15.51,14.17-24.68,18.9c-23.38,12.07-48.08,15.17-73.72,9.52
										c-18.05-3.98-33.94-12.49-47.77-24.78c-4.01-3.56-3.95-5.3,0.19-8.86c7.71-6.64,16.98-9.07,26.87-9.66
										c12.77-0.76,24.88,2.47,36.91,6.17c8.87,2.73,17.68,5.63,26.58,8.24c16,4.7,32.17,5.15,48.45,1.51
										C176.72,184.39,178.92,183.55,181.68,183.85z"/>
									<path class="st1" d="M42.42,65.12c0,11.48,0.42,22.97-0.01,34.46c-0.72,19.05-6.97,35.84-19.53,50.21
										c-2.08,2.37-4.38,4.56-6.7,6.71c-2.38,2.21-3.57,1.96-5-1c-7.07-14.63-10.97-30.02-11.17-46.33
										c-0.29-24.22,6.8-46.08,20.8-65.75c5.17-7.26,11.77-13.2,18.22-19.25c1.72-1.61,3.11-0.96,3.33,1.44
										c0.15,1.57,0.06,3.16,0.06,4.74C42.42,41.93,42.42,53.52,42.42,65.12z"/>
								</g>
							</g>
						</g>
					</g>
				</g>
			</g>
		</g>
	</g>
</g>
</svg>
