<?xml version="1.0" encoding="utf-8"?>
<!-- Generator: Adobe Illustrator 26.5.0, SVG Export Plug-In . SVG Version: 6.00 Build 0)  -->
<svg version="1.1" id="Layer_1" xmlns="http://www.w3.org/2000/svg" xmlns:xlink="http://www.w3.org/1999/xlink" x="0px" y="0px"
	 viewBox="0 0 1032.04 423.32" style="enable-background:new 0 0 1032.04 423.32;" xml:space="preserve">
<style type="text/css">
	.st0{fill:#F2F2E9;}
	.st1{fill:#F48E4A;}
	.st2{fill:#2E5584;}
</style>
<g>
	<g>
		<g>
			<path class="st0" d="M0,0c344.01,0,688.03,0,1032.04,0c0,141.11,0,282.21,0,423.32c-344.01,0-688.03,0-1032.04,0
				C0,282.21,0,141.11,0,0z"/>
			<path class="st1" d="M122.53,264.04c2.24-3.23,4.94-6,7.21-9.14c12.18-16.79,19.97-35.29,22.3-56c0.63-5.56,0.92-11.13,0.95-16.7
				c0.12-21.19,0.05-42.39,0.05-63.59c0-6.81,0.83-7.74,7.49-9.53c10.76-2.89,21.69-4.26,32.81-3.89
				c11.01,0.36,21.73,2.37,32.14,6.05c10.81,3.83,20.82,9.17,29.97,16.01c8.4,6.28,15.5,13.91,21.77,22.33
				c3.6,4.84,6.45,10.12,9.48,15.3c0.79,1.35,1.64,2.74,0.83,4.51c-1.26,0.19-2.14-0.58-3.11-1.18
				c-7.93-4.89-16.14-9.23-25.41-10.93c-19.59-3.58-37.17,0.72-51.62,14.72c-11.35,10.99-12.64,29.87-3.33,42.69
				c8.67,11.94,27.03,16,40.73,3.9c2.24-1.98,3.84-4.51,4.07-7.64c0.21-2.85-0.7-3.58-3.48-2.97c-1.64,0.36-3.28,0.76-4.94,1.06
				c-8.51,1.54-14.45-3.08-15.14-11.76c-0.81-10.06,4.3-18.52,14.41-21.49c20.29-5.95,43.38,0.88,51.57,24.14
				c4.53,12.87,5.26,26.11,1.5,39.17c-4.47,15.51-15.22,25.37-30.48,30.33c-9.36,3.05-18.74,1.65-28.07-0.24
				c-11.5-2.33-22.37-6.78-33.55-10.18c-6.65-2.02-13.25-4.2-20.08-5.57c-10.63-2.14-21.17-1.66-31.57,1.33
				c-6.79,1.95-13.46,4.28-19.75,7.57C127.24,263.42,125.05,264.06,122.53,264.04z"/>
			<path class="st2" d="M264.59,288.98c-6.54,9-15.51,14.17-24.68,18.9c-23.38,12.07-48.08,15.17-73.72,9.52
				c-18.05-3.98-33.94-12.49-47.77-24.78c-4.01-3.56-3.95-5.3,0.19-8.86c7.71-6.64,16.98-9.07,26.87-9.66
				c12.77-0.76,24.88,2.47,36.91,6.17c8.87,2.73,17.68,5.63,26.58,8.24c16,4.7,32.17,5.15,48.45,1.51
				C259.63,289.53,261.82,288.68,264.59,288.98z"/>
			<path class="st2" d="M125.33,170.25c0,11.48,0.42,22.97-0.01,34.46c-0.72,19.05-6.97,35.84-19.53,50.21
				c-2.08,2.37-4.38,4.56-6.7,6.71c-2.38,2.21-3.57,1.96-5-1C87,246,83.11,230.6,82.91,214.3c-0.29-24.22,6.8-46.08,20.8-65.75
				c5.17-7.26,11.77-13.2,18.22-19.25c1.72-1.61,3.11-0.96,3.33,1.44c0.15,1.57,0.06,3.16,0.06,4.74
				C125.33,147.06,125.33,158.66,125.33,170.25z"/>
			<path class="st2" d="M803.17,252.46c-5.18,5.11-10.82,6.88-17.21,6.96c-11.38,0.14-19.69-4.96-24-15.25
				c-5.19-12.39-5.14-24.96,2.41-36.6c7.88-12.16,24.05-11.76,31.93-7.57c2.68,1.42,4.59,3.6,6.18,6.17
				c1.03-0.52,0.57-1.33,0.57-1.95c0.02-9.17-0.01-18.34,0-27.5c0-3.67,0.24-7.38-2.88-10.98c6.04,0.14,11.37-0.34,16.67,0.33
				c3.02,0.38,4.47,2.68,4.84,5.51c0.33,2.5,0.43,5.04,0.43,7.56c0.04,23.5,0.05,47,0.03,70.5c0,3,0.13,5.91,2.27,8.2
				c-0.6,1.17-1.55,0.77-2.32,0.78c-2.84,0.03-5.69-0.1-8.53-0.02C809,258.72,804.72,258.44,803.17,252.46z"/>
			<path class="st2" d="M708.88,204.86c10.16-9.79,25.77-9.81,34.89-0.23c3.19,3.35,4.75,7.4,5.26,11.93
				c0.54,4.73,0.31,9.48,0.34,14.22c0.04,5.91,0.04,11.81,0.01,17.72c-0.01,3.36-0.16,6.73,2.66,10.04
				c-6.15-0.05-11.68,0.59-17.15-0.55c-2.52-0.53-3.87-2.43-4.37-4.9c-0.37-1.87-0.45-3.76-0.46-5.67
				c-0.04-10.23-0.07-20.46-0.18-30.69c-0.03-3.06-0.37-6.11-1.36-9.04c-2.23-6.58-9.24-8.1-13.99-2.97
				c-3.79,4.1-5.04,9.35-5.2,14.62c-0.34,11.06-0.16,22.14-0.16,33.21c0,2.04,1.11,3.76,2.25,6.1c-5.86-0.3-11.37,0.49-16.83-0.69
				c-2.14-0.46-3.4-1.98-4.06-4.04c-0.66-2.05-0.66-4.16-0.66-6.27c-0.01-13.39-0.03-26.79,0-40.18c0.01-3.09-0.09-6.12-2.51-8.84
				c1.78-0.65,3.34-0.36,4.86-0.38c2.74-0.03,5.48-0.02,8.23,0.02C705.71,198.38,707.27,199.58,708.88,204.86z"/>
			<path class="st2" d="M891.38,258.65c-5.53-0.11-10.36,0.36-15.12-0.53c-3.87-0.72-4.81-1.92-7.02-7.72
				c-1.81,1.98-3.63,3.82-5.64,5.5c-6.09,5.13-21.05,4.52-27.5-0.7c-2.08-1.68-3.77-3.67-4.76-6.2c-1.68-4.29-0.82-8.37,2.48-11.59
				c4.05-3.96,9.27-5.74,14.42-7.63c5.44-2,11.09-3.41,16.44-5.67c4.98-2.11,4.97-2.13,4.93-7.43c-0.02-3.38-0.16-6.75-1.01-10.04
				c-0.34-1.32-0.77-2.66-1.41-3.84c-2.44-4.5-7.09-4.98-10.3-1c-2.56,3.18-3.85,7-4.8,10.92c-0.4,1.64-0.72,3.3-0.99,4.96
				c-0.27,1.7-1.21,2.39-2.86,2.09c-3.46-0.61-6.79-1.52-9.43-4.07c-3.81-3.66-3.83-8.91,0.02-12.55c1.63-1.54,3.54-2.73,5.68-3.34
				c10.78-3.11,21.58-3.72,32.3,0.25c8.38,3.11,11.86,8.11,11.89,16.98c0.04,10.86,0.07,21.72,0.01,32.58
				C888.7,252.63,888.99,255.48,891.38,258.65z"/>
			<path class="st2" d="M581.96,258.68c-5.6-0.23-10.52,0.32-15.39-0.61c-4.08-0.78-6-3.59-6.38-7.53c-1.26,0.18-1.5,1.1-1.99,1.72
				c-8.17,10.3-24.87,8.09-31.45,2.92c-1.15-0.9-2.19-2-3.08-3.16c-3.98-5.22-3.17-11.45,1.95-15.72c3.81-3.17,8.41-4.76,12.95-6.45
				c6.03-2.24,12.28-3.8,18.2-6.37c2.6-1.13,3.72-2.63,3.49-5.51c-0.24-3.15-0.13-6.32-0.67-9.45c-0.4-2.3-0.92-4.56-2.27-6.52
				c-2.44-3.54-6.49-3.88-9.4-0.7c-2.18,2.38-3.44,5.29-4.37,8.34c-0.77,2.52-1.39,5.08-1.7,7.71c-0.23,1.92-1.14,2.82-3.2,2.37
				c-2.68-0.59-5.37-1.15-7.69-2.75c-5.79-4.01-5.85-10.9-0.11-14.99c1.29-0.92,2.67-1.74,4.19-2.18
				c10.89-3.18,21.79-3.75,32.58,0.34c8.25,3.12,11.63,8.1,11.67,16.84c0.05,10.12,0.01,20.24,0.01,30.37
				C579.31,251.11,579,254.92,581.96,258.68z"/>
			<path class="st2" d="M416.44,259.44c-11.16-0.11-20.74-3.7-27.07-13.66c-7.81-12.28-5.93-30.53,4.07-40
				c1.07-1.01,2.27-1.88,3.44-2.77c10.22-7.69,33.82-8.56,44.91,4.08c2.33,2.65,4.16,5.55,5.38,8.85c3.66,9.88,3.7,26-8.26,36.23
				C432.45,257.68,424.8,259.38,416.44,259.44z"/>
			<path class="st2" d="M342.48,253.91c6.5-0.45,12.51-1.92,18.51-3.33c6.04-1.41,12.01-3.11,18.52-4.82
				c0.56,3.99,0.35,7.81-0.04,11.63c-0.09,0.86-0.89,1.11-1.67,1.16c-0.84,0.04-1.69,0.04-2.53,0.04
				c-17.28,0.02-34.57,0.05-51.85,0.06c-1.01,0-2.07,0.18-3.32-0.5c2.8-3.16,2.44-6.88,2.44-10.53c0-21.61,0.01-43.21,0-64.82
				c0-3.55,0.35-7.19-2.5-10.45c5.99,0,11.43-0.18,16.84,0.07c2.78,0.13,4.45,2.19,5.23,4.84c0.6,2.04,0.71,4.15,0.71,6.26
				c0,21.29,0.01,42.58-0.02,63.87C342.82,249.39,342.62,251.39,342.48,253.91z"/>
			<path class="st2" d="M660.36,226.67c-5.8,0-11.6,0.04-17.4-0.02c-1.93-0.02-2.95,0.53-2.86,2.69c0.26,6.47,1.04,12.84,3.57,18.86
				c2.71,6.46,7.45,9.62,13.34,9.1c3.75-0.34,6.76-2.18,9.42-4.72c2.23-2.14,3.94-4.65,5.53-7.28c0.78-1.29,1.54-2.52,3.46-1.25
				c3.11,2.04,3.72,2.99,2.36,5.09c-2.53,3.92-5.93,7.03-10.41,8.36c-12.31,3.64-24.2,2.74-35.21-4.34
				c-4.35-2.8-7.55-6.71-9.64-11.46c-4.91-11.14-4.5-28.3,9.14-38.09c11.41-8.19,31.46-7.89,40.34-0.7
				c6.98,5.65,9.19,13.06,9.17,21.55c-0.01,2.15-1.56,2.2-3.1,2.21c-5.91,0.01-11.81,0-17.72,0
				C660.36,226.65,660.36,226.66,660.36,226.67z"/>
			<path class="st2" d="M588.7,166.01c5.66,0,11.11-0.18,16.53,0.08c2.5,0.12,4.04,2.05,4.73,4.5c0.58,2.06,0.55,4.17,0.55,6.27
				c0.01,24.33,0.03,48.66,0,72.98c0,2.99,0.29,5.84,2.73,8.87c-6.05-0.37-11.45,0.36-16.81-0.63c-2.54-0.47-3.98-2.22-4.59-4.68
				c-0.54-2.17-0.53-4.38-0.53-6.6c0-23.8-0.02-47.6,0.02-71.4C591.33,172.03,591.13,168.77,588.7,166.01z"/>
			<path class="st2" d="M509.5,243.09c5.86,3.86,5.91,4.6,1.32,9.28c-3.14,3.2-6.95,5.18-11.25,6.05
				c-8.86,1.81-17.63,1.51-26.07-2.05c-10.83-4.58-16.49-12.99-17.73-24.53c-1.99-18.57,10.5-31.15,25.85-33.7
				c9.46-1.57,18.72-1.16,27.15,4.24c0.53,0.34,1.06,0.69,1.56,1.08c4.68,3.72,6.75,8.73,5.24,13.25
				c-1.85,5.55-6.55,7.32-11.68,8.41c-1.65,0.35-2.24-0.47-2.49-1.98c-0.54-3.33-1.15-6.64-1.84-9.94c-0.63-3-1.69-5.88-3.19-8.56
				c-3.76-6.71-9.95-7.17-14.7-1.1c-2.06,2.63-3.13,5.75-3.94,8.91c-2.68,10.53-2.52,21.07,0.3,31.57c0.66,2.46,1.69,4.76,3,6.94
				c3.93,6.51,10.54,8.23,17.13,4.44c3.26-1.88,5.74-4.58,7.94-7.59C507.2,246.29,507.97,244.53,509.5,243.09z"/>
			<path class="st2" d="M943.74,222c-1.26-0.31-1.58-1.16-2.09-1.79c-0.46-0.57-0.82-1.23-1.28-1.8
				c-6.44-7.96-15.13-6.68-18.91,2.79c-1.07,2.68-1.5,5.48-1.5,8.35c-0.01,7.16,0.05,14.33-0.04,21.49
				c-0.03,2.64,0.92,4.89,2.47,7.59c-5.96-0.25-11.55,0.54-17.1-0.71c-2.15-0.48-3.35-2.08-3.96-4.13
				c-0.62-2.05-0.63-4.16-0.63-6.27c-0.01-13.38-0.02-26.76,0-40.14c0-3.08-0.06-6.11-2.9-9.15c6.23,0.15,11.74-0.44,17.21,0.48
				c2.4,0.4,3.7,2.21,4.37,4.51c0.63,2.16,0.4,4.39,0.72,6.83c1.39-1.14,1.67-2.75,2.46-4.01c3.28-5.19,7.43-8.89,14.06-8.57
				c6.19,0.3,10.68,4.6,11.17,10.78C948.19,213.4,946.76,217.96,943.74,222z"/>
			<path class="st0" d="M803,226.9c0.21,6.59-0.7,13.01-3.07,19.19c-1.06,2.77-2.43,5.37-4.57,7.48c-3.72,3.68-7.95,3.36-11-0.87
				c-2.46-3.41-3.56-7.38-4.23-11.44c-1.62-9.84-1.9-19.67,0.73-29.42c0.74-2.76,1.72-5.43,3.67-7.6c3.04-3.41,6.55-3.79,9.98-0.79
				c5.43,4.76,7.88,11.03,8.47,18.09C803.13,223.32,803.01,225.12,803,226.9z"/>
			<path class="st0" d="M869.74,225.52c-0.22,7.74,0.59,15-2.89,21.75c-0.99,1.92-2.46,3.42-4.33,4.47
				c-4.83,2.71-9.98,0.49-11.38-4.85c-1.25-4.77-0.33-9.04,3.32-12.42C858.73,230.48,864.1,228.36,869.74,225.52z"/>
			<path class="st0" d="M559.47,225.81c0.71,0.52,0.91,1.02,0.91,1.55c-0.03,5.77,0.07,11.57-1.75,17.16
				c-0.97,2.99-2.62,5.5-5.38,7.13c-4.78,2.81-9.96,0.74-11.49-4.57c-1.53-5.3-0.16-9.84,4.01-13.33
				C549.9,230.29,554.88,228.24,559.47,225.81z"/>
			<path class="st0" d="M428.76,225.99c0.07,8.04-0.5,16-3.5,23.59c-0.74,1.88-1.75,3.6-3.13,5.08c-3.57,3.81-7.73,3.72-11.13-0.26
				c-1.74-2.04-2.86-4.46-3.54-7.01c-3.28-12.45-3.61-24.97-0.37-37.49c0.74-2.87,1.93-5.58,3.94-7.84
				c3.38-3.81,8.23-3.76,11.49,0.16c2.42,2.91,3.63,6.4,4.5,10c0.54,2.25,0.95,4.54,1.24,6.83
				C428.55,221.35,428.61,223.67,428.76,225.99z"/>
			<path class="st0" d="M650.85,222.72c-2.84,0-5.68-0.04-8.52,0.02c-1.44,0.03-2.16-0.46-2.06-2c0.36-5.71,1.21-11.3,3.95-16.43
				c1.64-3.06,3.98-5.23,7.72-5c3.6,0.22,5.61,2.62,6.97,5.64c2.21,4.89,2.58,10.14,2.89,15.41c0.11,1.78-0.73,2.45-2.44,2.42
				c-2.84-0.05-5.68-0.01-8.52-0.01C650.85,222.74,650.85,222.73,650.85,222.72z"/>
		</g>
	</g>
</g>
</svg>
